<mxfile host="Electron" modified="2023-12-27T23:30:37.310Z" agent="Mozilla/5.0 (Windows NT 10.0; Win64; x64) AppleWebKit/537.36 (KHTML, like Gecko) draw.io/22.1.11 Chrome/114.0.5735.289 Electron/25.9.8 Safari/537.36" etag="YA2g8SYfcudLBkT2y5YW" version="22.1.11" type="device">
  <diagram name="Page-1" id="1kcz_rIKNHUoaq0Fd4Ed">
    <mxGraphModel dx="1050" dy="621" grid="1" gridSize="10" guides="1" tooltips="1" connect="1" arrows="1" fold="1" page="1" pageScale="1" pageWidth="827" pageHeight="1169" math="0" shadow="0">
      <root>
        <mxCell id="0" />
        <mxCell id="1" parent="0" />
        <mxCell id="fyEY6ck3UhEqFUX1lH3_-4" value="Client" style="shape=umlLifeline;perimeter=lifelinePerimeter;whiteSpace=wrap;html=1;container=1;dropTarget=0;collapsible=0;recursiveResize=0;outlineConnect=0;portConstraint=eastwest;newEdgeStyle={&quot;curved&quot;:0,&quot;rounded&quot;:0};" parent="1" vertex="1">
          <mxGeometry x="69" y="110" width="100" height="500" as="geometry" />
        </mxCell>
        <mxCell id="fyEY6ck3UhEqFUX1lH3_-21" value="" style="html=1;points=[[0,0,0,0,5],[0,1,0,0,-5],[1,0,0,0,5],[1,1,0,0,-5]];perimeter=orthogonalPerimeter;outlineConnect=0;targetShapes=umlLifeline;portConstraint=eastwest;newEdgeStyle={&quot;curved&quot;:0,&quot;rounded&quot;:0};" parent="fyEY6ck3UhEqFUX1lH3_-4" vertex="1">
          <mxGeometry x="45" y="390" width="10" height="30" as="geometry" />
        </mxCell>
        <mxCell id="fyEY6ck3UhEqFUX1lH3_-22" value="" style="html=1;points=[[0,0,0,0,5],[0,1,0,0,-5],[1,0,0,0,5],[1,1,0,0,-5]];perimeter=orthogonalPerimeter;outlineConnect=0;targetShapes=umlLifeline;portConstraint=eastwest;newEdgeStyle={&quot;curved&quot;:0,&quot;rounded&quot;:0};" parent="fyEY6ck3UhEqFUX1lH3_-4" vertex="1">
          <mxGeometry x="45" y="440" width="10" height="30" as="geometry" />
        </mxCell>
        <mxCell id="fyEY6ck3UhEqFUX1lH3_-23" value="save response to DB" style="html=1;align=left;spacingLeft=2;endArrow=block;rounded=0;edgeStyle=orthogonalEdgeStyle;curved=0;rounded=0;" parent="fyEY6ck3UhEqFUX1lH3_-4" target="fyEY6ck3UhEqFUX1lH3_-22" edge="1">
          <mxGeometry relative="1" as="geometry">
            <mxPoint x="50" y="420" as="sourcePoint" />
            <Array as="points">
              <mxPoint x="80" y="450" />
            </Array>
          </mxGeometry>
        </mxCell>
        <mxCell id="7GJ1uHU-1TYeC9K0zzer-1" value="" style="html=1;points=[[0,0,0,0,5],[0,1,0,0,-5],[1,0,0,0,5],[1,1,0,0,-5]];perimeter=orthogonalPerimeter;outlineConnect=0;targetShapes=umlLifeline;portConstraint=eastwest;newEdgeStyle={&quot;curved&quot;:0,&quot;rounded&quot;:0};" vertex="1" parent="fyEY6ck3UhEqFUX1lH3_-4">
          <mxGeometry x="45" y="120" width="10" height="40" as="geometry" />
        </mxCell>
        <mxCell id="7GJ1uHU-1TYeC9K0zzer-2" value="create request&lt;br&gt;and save to DB" style="html=1;align=left;spacingLeft=2;endArrow=block;rounded=0;edgeStyle=orthogonalEdgeStyle;curved=0;rounded=0;" edge="1" target="7GJ1uHU-1TYeC9K0zzer-1" parent="fyEY6ck3UhEqFUX1lH3_-4" source="7GJ1uHU-1TYeC9K0zzer-3">
          <mxGeometry relative="1" as="geometry">
            <mxPoint x="50" y="80" as="sourcePoint" />
            <Array as="points">
              <mxPoint x="80" y="110" />
            </Array>
          </mxGeometry>
        </mxCell>
        <mxCell id="7GJ1uHU-1TYeC9K0zzer-3" value="" style="html=1;points=[[0,0,0,0,5],[0,1,0,0,-5],[1,0,0,0,5],[1,1,0,0,-5]];perimeter=orthogonalPerimeter;outlineConnect=0;targetShapes=umlLifeline;portConstraint=eastwest;newEdgeStyle={&quot;curved&quot;:0,&quot;rounded&quot;:0};" vertex="1" parent="fyEY6ck3UhEqFUX1lH3_-4">
          <mxGeometry x="45" y="90" width="10" height="20" as="geometry" />
        </mxCell>
        <mxCell id="7GJ1uHU-1TYeC9K0zzer-6" value="" style="html=1;points=[[0,0,0,0,5],[0,1,0,0,-5],[1,0,0,0,5],[1,1,0,0,-5]];perimeter=orthogonalPerimeter;outlineConnect=0;targetShapes=umlLifeline;portConstraint=eastwest;newEdgeStyle={&quot;curved&quot;:0,&quot;rounded&quot;:0};" vertex="1" parent="fyEY6ck3UhEqFUX1lH3_-4">
          <mxGeometry x="45" y="240" width="10" height="40" as="geometry" />
        </mxCell>
        <mxCell id="7GJ1uHU-1TYeC9K0zzer-7" value="update request&lt;br&gt;status in DB" style="html=1;align=left;spacingLeft=2;endArrow=block;rounded=0;edgeStyle=orthogonalEdgeStyle;curved=0;rounded=0;" edge="1" parent="fyEY6ck3UhEqFUX1lH3_-4" source="7GJ1uHU-1TYeC9K0zzer-8" target="7GJ1uHU-1TYeC9K0zzer-6">
          <mxGeometry relative="1" as="geometry">
            <mxPoint x="50" y="200" as="sourcePoint" />
            <Array as="points">
              <mxPoint x="80" y="230" />
            </Array>
          </mxGeometry>
        </mxCell>
        <mxCell id="7GJ1uHU-1TYeC9K0zzer-8" value="" style="html=1;points=[[0,0,0,0,5],[0,1,0,0,-5],[1,0,0,0,5],[1,1,0,0,-5]];perimeter=orthogonalPerimeter;outlineConnect=0;targetShapes=umlLifeline;portConstraint=eastwest;newEdgeStyle={&quot;curved&quot;:0,&quot;rounded&quot;:0};" vertex="1" parent="fyEY6ck3UhEqFUX1lH3_-4">
          <mxGeometry x="45" y="210" width="10" height="20" as="geometry" />
        </mxCell>
        <mxCell id="fyEY6ck3UhEqFUX1lH3_-5" value="" style="html=1;points=[[0,0,0,0,5],[0,1,0,0,-5],[1,0,0,0,5],[1,1,0,0,-5]];perimeter=orthogonalPerimeter;outlineConnect=0;targetShapes=umlLifeline;portConstraint=eastwest;newEdgeStyle={&quot;curved&quot;:0,&quot;rounded&quot;:0};" parent="1" vertex="1">
          <mxGeometry x="269" y="290" width="10" height="40" as="geometry" />
        </mxCell>
        <mxCell id="fyEY6ck3UhEqFUX1lH3_-6" value="send request" style="html=1;verticalAlign=bottom;startArrow=oval;endArrow=block;startSize=8;curved=0;rounded=0;entryX=0;entryY=0;entryDx=0;entryDy=5;" parent="1" target="fyEY6ck3UhEqFUX1lH3_-5" edge="1">
          <mxGeometry relative="1" as="geometry">
            <mxPoint x="119" y="295" as="sourcePoint" />
          </mxGeometry>
        </mxCell>
        <mxCell id="fyEY6ck3UhEqFUX1lH3_-7" value="WebServer" style="shape=umlLifeline;perimeter=lifelinePerimeter;whiteSpace=wrap;html=1;container=1;dropTarget=0;collapsible=0;recursiveResize=0;outlineConnect=0;portConstraint=eastwest;newEdgeStyle={&quot;curved&quot;:0,&quot;rounded&quot;:0};" parent="1" vertex="1">
          <mxGeometry x="224" y="110" width="100" height="260" as="geometry" />
        </mxCell>
        <mxCell id="fyEY6ck3UhEqFUX1lH3_-8" value="put request to Kafka" style="html=1;verticalAlign=bottom;endArrow=block;curved=0;rounded=0;" parent="1" target="fyEY6ck3UhEqFUX1lH3_-12" edge="1">
          <mxGeometry width="80" relative="1" as="geometry">
            <mxPoint x="279" y="320" as="sourcePoint" />
            <mxPoint x="409" y="320" as="targetPoint" />
          </mxGeometry>
        </mxCell>
        <mxCell id="fyEY6ck3UhEqFUX1lH3_-9" value="KafkaTopic&lt;br&gt;Request" style="shape=umlLifeline;perimeter=lifelinePerimeter;whiteSpace=wrap;html=1;container=1;dropTarget=0;collapsible=0;recursiveResize=0;outlineConnect=0;portConstraint=eastwest;newEdgeStyle={&quot;curved&quot;:0,&quot;rounded&quot;:0};" parent="1" vertex="1">
          <mxGeometry x="369" y="110" width="100" height="290" as="geometry" />
        </mxCell>
        <mxCell id="fyEY6ck3UhEqFUX1lH3_-12" value="" style="html=1;points=[[0,0,0,0,5],[0,1,0,0,-5],[1,0,0,0,5],[1,1,0,0,-5]];perimeter=orthogonalPerimeter;outlineConnect=0;targetShapes=umlLifeline;portConstraint=eastwest;newEdgeStyle={&quot;curved&quot;:0,&quot;rounded&quot;:0};" parent="fyEY6ck3UhEqFUX1lH3_-9" vertex="1">
          <mxGeometry x="45" y="210" width="10" height="20" as="geometry" />
        </mxCell>
        <mxCell id="fyEY6ck3UhEqFUX1lH3_-10" value="KafkaTopic&lt;br&gt;Response" style="shape=umlLifeline;perimeter=lifelinePerimeter;whiteSpace=wrap;html=1;container=1;dropTarget=0;collapsible=0;recursiveResize=0;outlineConnect=0;portConstraint=eastwest;newEdgeStyle={&quot;curved&quot;:0,&quot;rounded&quot;:0};" parent="1" vertex="1">
          <mxGeometry x="669" y="110" width="100" height="410" as="geometry" />
        </mxCell>
        <mxCell id="fyEY6ck3UhEqFUX1lH3_-19" value="" style="html=1;points=[[0,0,0,0,5],[0,1,0,0,-5],[1,0,0,0,5],[1,1,0,0,-5]];perimeter=orthogonalPerimeter;outlineConnect=0;targetShapes=umlLifeline;portConstraint=eastwest;newEdgeStyle={&quot;curved&quot;:0,&quot;rounded&quot;:0};" parent="fyEY6ck3UhEqFUX1lH3_-10" vertex="1">
          <mxGeometry x="45" y="330" width="10" height="60" as="geometry" />
        </mxCell>
        <mxCell id="fyEY6ck3UhEqFUX1lH3_-11" value="TargetService" style="shape=umlLifeline;perimeter=lifelinePerimeter;whiteSpace=wrap;html=1;container=1;dropTarget=0;collapsible=0;recursiveResize=0;outlineConnect=0;portConstraint=eastwest;newEdgeStyle={&quot;curved&quot;:0,&quot;rounded&quot;:0};" parent="1" vertex="1">
          <mxGeometry x="519" y="110" width="100" height="360" as="geometry" />
        </mxCell>
        <mxCell id="fyEY6ck3UhEqFUX1lH3_-15" value="" style="html=1;points=[[0,0,0,0,5],[0,1,0,0,-5],[1,0,0,0,5],[1,1,0,0,-5]];perimeter=orthogonalPerimeter;outlineConnect=0;targetShapes=umlLifeline;portConstraint=eastwest;newEdgeStyle={&quot;curved&quot;:0,&quot;rounded&quot;:0};" parent="fyEY6ck3UhEqFUX1lH3_-11" vertex="1">
          <mxGeometry x="45" y="220" width="10" height="30" as="geometry" />
        </mxCell>
        <mxCell id="fyEY6ck3UhEqFUX1lH3_-16" value="" style="html=1;points=[[0,0,0,0,5],[0,1,0,0,-5],[1,0,0,0,5],[1,1,0,0,-5]];perimeter=orthogonalPerimeter;outlineConnect=0;targetShapes=umlLifeline;portConstraint=eastwest;newEdgeStyle={&quot;curved&quot;:0,&quot;rounded&quot;:0};" parent="fyEY6ck3UhEqFUX1lH3_-11" vertex="1">
          <mxGeometry x="45" y="270" width="10" height="70" as="geometry" />
        </mxCell>
        <mxCell id="fyEY6ck3UhEqFUX1lH3_-17" value="long calculation" style="html=1;align=left;spacingLeft=2;endArrow=block;rounded=0;edgeStyle=orthogonalEdgeStyle;curved=0;rounded=0;" parent="fyEY6ck3UhEqFUX1lH3_-11" target="fyEY6ck3UhEqFUX1lH3_-16" edge="1">
          <mxGeometry relative="1" as="geometry">
            <mxPoint x="50" y="250" as="sourcePoint" />
            <Array as="points">
              <mxPoint x="80" y="280" />
            </Array>
          </mxGeometry>
        </mxCell>
        <mxCell id="fyEY6ck3UhEqFUX1lH3_-14" value="listen for request" style="html=1;verticalAlign=bottom;endArrow=block;curved=0;rounded=0;" parent="1" source="fyEY6ck3UhEqFUX1lH3_-12" edge="1">
          <mxGeometry width="80" relative="1" as="geometry">
            <mxPoint x="429" y="350" as="sourcePoint" />
            <mxPoint x="568.5" y="330" as="targetPoint" />
          </mxGeometry>
        </mxCell>
        <mxCell id="fyEY6ck3UhEqFUX1lH3_-18" value="put response to Kafka" style="html=1;verticalAlign=bottom;endArrow=block;curved=0;rounded=0;" parent="1" source="fyEY6ck3UhEqFUX1lH3_-16" target="fyEY6ck3UhEqFUX1lH3_-19" edge="1">
          <mxGeometry width="80" relative="1" as="geometry">
            <mxPoint x="579" y="440" as="sourcePoint" />
            <mxPoint x="659" y="440" as="targetPoint" />
          </mxGeometry>
        </mxCell>
        <mxCell id="fyEY6ck3UhEqFUX1lH3_-20" value="listen for response" style="html=1;verticalAlign=bottom;endArrow=block;curved=0;rounded=0;" parent="1" edge="1">
          <mxGeometry width="80" relative="1" as="geometry">
            <mxPoint x="719" y="500" as="sourcePoint" />
            <mxPoint x="118.5" y="500" as="targetPoint" />
          </mxGeometry>
        </mxCell>
        <mxCell id="fyEY6ck3UhEqFUX1lH3_-24" value="" style="shape=umlDestroy;whiteSpace=wrap;html=1;strokeWidth=3;targetShapes=umlLifeline;" parent="1" vertex="1">
          <mxGeometry x="104" y="600" width="30" height="30" as="geometry" />
        </mxCell>
        <mxCell id="tYFYidzVY3siCUhTqQXA-1" value="Spring WebFlux&lt;br&gt;Spring Kafka" style="text;html=1;strokeColor=none;fillColor=none;align=center;verticalAlign=middle;whiteSpace=wrap;rounded=0;fontSize=11;" parent="1" vertex="1">
          <mxGeometry x="214" y="80" width="120" height="30" as="geometry" />
        </mxCell>
        <mxCell id="tYFYidzVY3siCUhTqQXA-2" value="Akka Streams&lt;br&gt;Akka Kafka" style="text;html=1;strokeColor=none;fillColor=none;align=center;verticalAlign=middle;whiteSpace=wrap;rounded=0;fontSize=11;" parent="1" vertex="1">
          <mxGeometry x="509" y="80" width="120" height="30" as="geometry" />
        </mxCell>
        <mxCell id="tYFYidzVY3siCUhTqQXA-3" value="Spring WebFlux&lt;br&gt;Spring Kafka&lt;br&gt;JDBC" style="text;html=1;strokeColor=none;fillColor=none;align=center;verticalAlign=middle;whiteSpace=wrap;rounded=0;fontSize=11;" parent="1" vertex="1">
          <mxGeometry x="59" y="60" width="120" height="50" as="geometry" />
        </mxCell>
      </root>
    </mxGraphModel>
  </diagram>
</mxfile>
